<svg width="24" height="24" viewBox="0 0 24 24" fill="none" xmlns="http://www.w3.org/2000/svg">
<path fill-rule="evenodd" clip-rule="evenodd" d="M16.8328 4.63389C17.9067 3.55995 19.6479 3.55995 20.7219 4.63389C21.7958 5.70783 21.7958 7.44904 20.7219 8.52298L14.3815 14.8633C13.9899 15.255 13.489 15.5193 12.9447 15.6215L10.0697 16.1616C9.82634 16.2073 9.57606 16.1299 9.40094 15.9548C9.22582 15.7797 9.14844 15.5294 9.19417 15.286L9.73424 12.4111C9.83651 11.8667 10.1008 11.3659 10.4924 10.9743L16.8328 4.63389ZM19.6612 5.69455C19.1731 5.2064 18.3816 5.2064 17.8935 5.69455L11.5531 12.0349C11.3751 12.213 11.2549 12.4406 11.2085 12.688L10.8709 14.4848L12.6677 14.1473C12.9152 14.1008 13.1428 13.9807 13.3209 13.8027L19.6612 7.46232C20.1494 6.97416 20.1494 6.18271 19.6612 5.69455Z" fill="#00C8A6"/>
<path fill-rule="evenodd" clip-rule="evenodd" d="M8.72424 11H6.75355C5.71193 11 4.7597 11.5885 4.29387 12.5202L2.29387 16.5202C1.37963 18.3486 2.70925 20.5 4.75355 20.5H18.2814C20.3257 20.5 21.6553 18.3486 20.7411 16.5202L18.7411 12.5202C18.7109 12.4598 18.6787 12.4009 18.6446 12.3435L17.532 13.4561L19.3994 17.191C19.815 18.0221 19.2106 19 18.2814 19H4.75355C3.82432 19 3.21995 18.0221 3.63551 17.191L5.63551 13.191C5.84725 12.7675 6.28008 12.5 6.75355 12.5H7.70153C7.77567 12.1244 7.95826 11.766 8.24931 11.4749L8.72424 11Z" fill="#00C8A6"/>
</svg>
